<svg xmlns="http://www.w3.org/2000/svg" xmlns:xlink="http://www.w3.org/1999/xlink" width="152.419" height="159.037" viewBox="0 0 152.419 159.037">
  <defs>
    <style>
      .cls-1 {
        fill: #0c9;
        opacity: 0.21;
      }

      .cls-2, .cls-3, .cls-4 {
        fill: none;
        stroke-miterlimit: 10;
        stroke-width: 2px;
      }

      .cls-2 {
        stroke: #3f3d56;
      }

      .cls-3 {
        stroke: #00b386;
      }

      .cls-4 {
        stroke: #0c9;
      }

      .cls-5 {
        fill: rgba(0,204,153,0.52);
      }

      .cls-6 {
        fill: #444;
      }

      .cls-7 {
        fill: url(#linear-gradient);
      }

      .cls-8 {
        fill: #2f2e41;
      }

      .cls-9 {
        opacity: 0.1;
      }

      .cls-10 {
        fill: #07f2b7;
      }
    </style>
    <linearGradient id="linear-gradient" x1="0.366" x2="0.828" y2="1" gradientUnits="objectBoundingBox">
      <stop offset="0" stop-color="#0c9"/>
      <stop offset="1" stop-color="#00b386"/>
    </linearGradient>
  </defs>
  <g id="Group_636" data-name="Group 636" transform="translate(-96 -111.639)">
    <g id="Group_390" data-name="Group 390" transform="translate(96 111.639)">
      <path id="Path_762" data-name="Path 762" class="cls-1" d="M243.262,164.636l-40.834-51.027a13.71,13.71,0,0,1-6.6,3.335c-7.687,1.514-15.195-3.736-16.768-11.725a14.81,14.81,0,0,1,5.113-14.427l-13.923-17.4L90.923,141.185l73.017,91.244Z" transform="translate(-90.923 -73.392)"/>
      <line id="Line_1" data-name="Line 1" class="cls-2" x2="139.195" transform="translate(13.224 138.673)"/>
      <ellipse id="Ellipse_36" data-name="Ellipse 36" class="cls-3" cx="2.313" cy="2.313" rx="2.313" ry="2.313" transform="translate(114.619 27.316)"/>
      <ellipse id="Ellipse_37" data-name="Ellipse 37" class="cls-4" cx="2.313" cy="2.313" rx="2.313" ry="2.313" transform="translate(145.185 94.563)"/>
      <ellipse id="Ellipse_38" data-name="Ellipse 38" class="cls-4" cx="2.313" cy="2.313" rx="2.313" ry="2.313" transform="translate(44.279 33.116)"/>
      <ellipse id="Ellipse_39" data-name="Ellipse 39" class="cls-5" cx="8.514" cy="8.514" rx="8.514" ry="8.514" transform="translate(86.464 34.096)"/>
      <path id="Path_763" data-name="Path 763" class="cls-6" d="M221.032,182.771h37.717a8.018,8.018,0,0,1,7.822,6.254l19.057,84.531a6.48,6.48,0,0,1-6,7.9l-38.773,1.91a8.561,8.561,0,0,1-8.846-7.027L221.2,216.573l-.8.23-2.069-11.328.828-.207-3.018-16.682a4.937,4.937,0,0,1,4.9-5.815Z" transform="translate(-176.604 -144.918)"/>
      <path id="Path_764" data-name="Path 764" class="cls-7" d="M273.807,194.4h4.4a5.541,5.541,0,0,1,5.414,4.36L301.916,282.6a3.433,3.433,0,0,1-3.13,4.158l-38.648,2.533a4.447,4.447,0,0,1-4.667-3.649l-15.609-86.658a3.895,3.895,0,0,1,3.833-4.585h4.177a1.838,1.838,0,0,1,1.775,1.36h0a1.623,1.623,0,0,0,1.567,1.2h19.828a2.774,2.774,0,0,0,2.766-2.561Z" transform="translate(-196.628 -154.722)"/>
      <rect id="Rectangle_609" data-name="Rectangle 609" class="cls-8" width="39.991" height="0.197" transform="translate(49.5 61.345)"/>
      <rect id="Rectangle_610" data-name="Rectangle 610" class="cls-8" width="40.385" height="0.197" transform="translate(50.682 67.748)"/>
      <path id="Path_765" data-name="Path 765" class="cls-8" d="M188.223,242.42l.909-1.212-.158-.118-.785,1.047-3.026-2.476-.125.153Z" transform="translate(-136.197 -181.386)"/>
      <path id="Path_766" data-name="Path 766" class="cls-8" d="M221.527,424.652l.909-1.211-.158-.118-.785,1.047-3.026-2.476-.125.152Z" transform="translate(-164.281 -335.054)"/>
      <rect id="Rectangle_611" data-name="Rectangle 611" class="cls-8" width="41.872" height="0.197" transform="translate(53.635 90.502) rotate(-1.213)"/>
      <rect id="Rectangle_612" data-name="Rectangle 612" class="cls-8" width="42.662" height="0.197" transform="matrix(1, -0.023, 0.023, 1, 54.127, 96.411)"/>
      <path id="Path_767" data-name="Path 767" class="cls-9" d="M414.94,605.925a9.358,9.358,0,0,0,18.715,0c0-.117,0-.233-.007-.35a9.357,9.357,0,1,0-18.71.35Z" transform="translate(-344.312 -493.704)"/>
    </g>
    <path id="Icon_material-message" data-name="Icon material-message" class="cls-10" d="M30,3H6A3,3,0,0,0,3.015,6L3,33l6-6H30a3.009,3.009,0,0,0,3-3V6A3.009,3.009,0,0,0,30,3ZM27,21H9V18H27Zm0-4.5H9v-3H27ZM27,12H9V9H27Z" transform="translate(177 165)"/>
  </g>
</svg>
